REM DIRINDEX 1\2\4,1\2\5,1\2\6,1\3\7,1\3\8,1\3\9,1\3\10
REM DIRNAME cjc057,folder01,folder02,folder03,folder04,folder05,folder06,folder07,folder08,folder09
TITLE ""
FILE "b_126.mp3" MP3
  TRACK 01 AUDIO
    TITLE "0:"
    INDEX 01 00:00:00
  TRACK 02 AUDIO
    TITLE "7:cjc057_07895"
    INDEX 01 00:00:13
  TRACK 03 AUDIO
    TITLE "0:"
    INDEX 01 00:01:60
  TRACK 04 AUDIO
    TITLE "8:cjc057_07896"
    INDEX 01 00:02:16
  TRACK 05 AUDIO
    TITLE "0:"
    INDEX 01 00:04:36
  TRACK 06 AUDIO
    TITLE "7:cjc057_07897"
    INDEX 01 00:05:38
  TRACK 07 AUDIO
    TITLE "0:"
    INDEX 01 00:07:07
  TRACK 08 AUDIO
    TITLE "8:cjc057_07898"
    INDEX 01 00:07:37
  TRACK 09 AUDIO
    TITLE "0:"
    INDEX 01 00:09:69
  TRACK 10 AUDIO
    TITLE "7:cjc057_07899"
    INDEX 01 00:10:68
  TRACK 11 AUDIO
    TITLE "0:"
    INDEX 01 00:12:26
  TRACK 12 AUDIO
    TITLE "8:cjc057_07900"
    INDEX 01 00:12:56
  TRACK 13 AUDIO
    TITLE "0:"
    INDEX 01 00:15:21
  TRACK 14 AUDIO
    TITLE "7:cjc057_07901"
    INDEX 01 00:16:24
  TRACK 15 AUDIO
    TITLE "0:"
    INDEX 01 00:17:49
  TRACK 16 AUDIO
    TITLE "8:cjc057_07902"
    INDEX 01 00:18:01
  TRACK 17 AUDIO
    TITLE "0:"
    INDEX 01 00:19:30
  TRACK 18 AUDIO
    TITLE "7:cjc057_07903"
    INDEX 01 00:20:34
  TRACK 19 AUDIO
    TITLE "0:"
    INDEX 01 00:21:49
  TRACK 20 AUDIO
    TITLE "8:cjc057_07904"
    INDEX 01 00:22:05
  TRACK 21 AUDIO
    TITLE "0:"
    INDEX 01 00:23:26
  TRACK 22 AUDIO
    TITLE "7:cjc057_07905"
    INDEX 01 00:24:29
  TRACK 23 AUDIO
    TITLE "0:"
    INDEX 01 00:25:41
  TRACK 24 AUDIO
    TITLE "8:cjc057_07906"
    INDEX 01 00:25:72
  TRACK 25 AUDIO
    TITLE "0:"
    INDEX 01 00:28:06
  TRACK 26 AUDIO
    TITLE "7:cjc057_07907"
    INDEX 01 00:29:11
  TRACK 27 AUDIO
    TITLE "0:"
    INDEX 01 00:30:30
  TRACK 28 AUDIO
    TITLE "8:cjc057_07908"
    INDEX 01 00:30:59
  TRACK 29 AUDIO
    TITLE "0:"
    INDEX 01 00:31:67
  TRACK 30 AUDIO
    TITLE "7:cjc057_07909"
    INDEX 01 00:32:74
  TRACK 31 AUDIO
    TITLE "0:"
    INDEX 01 00:34:20
  TRACK 32 AUDIO
    TITLE "8:cjc057_07910"
    INDEX 01 00:34:47
  TRACK 33 AUDIO
    TITLE "0:"
    INDEX 01 00:36:52
  TRACK 34 AUDIO
    TITLE "7:cjc057_07911"
    INDEX 01 00:37:56
  TRACK 35 AUDIO
    TITLE "0:"
    INDEX 01 00:38:69
  TRACK 36 AUDIO
    TITLE "8:cjc057_07912"
    INDEX 01 00:39:25
  TRACK 37 AUDIO
    TITLE "0:"
    INDEX 01 00:41:53
  TRACK 38 AUDIO
    TITLE "7:cjc057_07913"
    INDEX 01 00:42:57
  TRACK 39 AUDIO
    TITLE "0:"
    INDEX 01 00:43:72
  TRACK 40 AUDIO
    TITLE "8:cjc057_07914"
    INDEX 01 00:44:20
  TRACK 41 AUDIO
    TITLE "0:"
    INDEX 01 00:45:71
  TRACK 42 AUDIO
    TITLE "7:cjc057_07915"
    INDEX 01 00:47:01
  TRACK 43 AUDIO
    TITLE "0:"
    INDEX 01 00:48:34
  TRACK 44 AUDIO
    TITLE "8:cjc057_07916"
    INDEX 01 00:48:63
  TRACK 45 AUDIO
    TITLE "0:"
    INDEX 01 00:50:11
  TRACK 46 AUDIO
    TITLE "7:cjc057_07917"
    INDEX 01 00:51:15
  TRACK 47 AUDIO
    TITLE "0:"
    INDEX 01 00:52:22
  TRACK 48 AUDIO
    TITLE "8:cjc057_07918"
    INDEX 01 00:52:51
  TRACK 49 AUDIO
    TITLE "0:"
    INDEX 01 00:54:62
  TRACK 50 AUDIO
    TITLE "7:cjc057_07919"
    INDEX 01 00:55:63
  TRACK 51 AUDIO
    TITLE "0:"
    INDEX 01 00:57:07
  TRACK 52 AUDIO
    TITLE "8:cjc057_07920"
    INDEX 01 00:57:37
  TRACK 53 AUDIO
    TITLE "0:"
    INDEX 01 00:59:06
  TRACK 54 AUDIO
    TITLE "7:cjc057_07921"
    INDEX 01 01:00:10
  TRACK 55 AUDIO
    TITLE "0:"
    INDEX 01 01:01:11
  TRACK 56 AUDIO
    TITLE "8:cjc057_07922"
    INDEX 01 01:01:40
  TRACK 57 AUDIO
    TITLE "0:"
    INDEX 01 01:03:43
  TRACK 58 AUDIO
    TITLE "7:cjc057_07923"
    INDEX 01 01:04:47
  TRACK 59 AUDIO
    TITLE "0:"
    INDEX 01 01:06:08
  TRACK 60 AUDIO
    TITLE "8:cjc057_07924"
    INDEX 01 01:06:38
  TRACK 61 AUDIO
    TITLE "0:"
    INDEX 01 01:08:66
  TRACK 62 AUDIO
    TITLE "7:cjc057_07925"
    INDEX 01 01:09:71
  TRACK 63 AUDIO
    TITLE "0:"
    INDEX 01 01:11:19
  TRACK 64 AUDIO
    TITLE "8:cjc057_07926"
    INDEX 01 01:11:47
  TRACK 65 AUDIO
    TITLE "0:"
    INDEX 01 01:12:73
  TRACK 66 AUDIO
    TITLE "7:cjc057_07927"
    INDEX 01 01:14:02
  TRACK 67 AUDIO
    TITLE "0:"
    INDEX 01 01:15:66
  TRACK 68 AUDIO
    TITLE "8:cjc057_07928"
    INDEX 01 01:16:20
  TRACK 69 AUDIO
    TITLE "0:"
    INDEX 01 01:19:07
  TRACK 70 AUDIO
    TITLE "7:cjc057_07929"
    INDEX 01 01:20:10
  TRACK 71 AUDIO
    TITLE "0:"
    INDEX 01 01:21:27
  TRACK 72 AUDIO
    TITLE "8:cjc057_07930"
    INDEX 01 01:21:57
  TRACK 73 AUDIO
    TITLE "0:"
    INDEX 01 01:23:69
  TRACK 74 AUDIO
    TITLE "7:cjc057_07931"
    INDEX 01 01:24:71
  TRACK 75 AUDIO
    TITLE "0:"
    INDEX 01 01:26:29
  TRACK 76 AUDIO
    TITLE "8:cjc057_07932"
    INDEX 01 01:26:58
  TRACK 77 AUDIO
    TITLE "0:"
    INDEX 01 01:28:00
  TRACK 78 AUDIO
    TITLE "7:cjc057_07933"
    INDEX 01 01:29:05
  TRACK 79 AUDIO
    TITLE "0:"
    INDEX 01 01:30:32
  TRACK 80 AUDIO
    TITLE "8:cjc057_07934"
    INDEX 01 01:30:60
  TRACK 81 AUDIO
    TITLE "0:"
    INDEX 01 01:32:06
  TRACK 82 AUDIO
    TITLE "7:cjc057_07935"
    INDEX 01 01:33:11
  TRACK 83 AUDIO
    TITLE "0:"
    INDEX 01 01:34:32
  TRACK 84 AUDIO
    TITLE "8:cjc057_07936"
    INDEX 01 01:34:59
  TRACK 85 AUDIO
    TITLE "0:"
    INDEX 01 01:37:19
  TRACK 86 AUDIO
    TITLE "7:cjc057_07937"
    INDEX 01 01:38:24
  TRACK 87 AUDIO
    TITLE "0:"
    INDEX 01 01:39:41
  TRACK 88 AUDIO
    TITLE "8:cjc057_07938"
    INDEX 01 01:39:70
  TRACK 89 AUDIO
    TITLE "0:"
    INDEX 01 01:41:14
  TRACK 90 AUDIO
    TITLE "7:cjc057_07939"
    INDEX 01 01:42:18
  TRACK 91 AUDIO
    TITLE "0:"
    INDEX 01 01:43:41
  TRACK 92 AUDIO
    TITLE "8:cjc057_07940"
    INDEX 01 01:43:72
  TRACK 93 AUDIO
    TITLE "0:"
    INDEX 01 01:45:26
  TRACK 94 AUDIO
    TITLE "7:cjc057_07941"
    INDEX 01 01:46:27
  TRACK 95 AUDIO
    TITLE "0:"
    INDEX 01 01:47:37
  TRACK 96 AUDIO
    TITLE "8:cjc057_07942"
    INDEX 01 01:47:64
  TRACK 97 AUDIO
    TITLE "0:"
    INDEX 01 01:50:11
  TRACK 98 AUDIO
    TITLE "7:cjc057_07943"
    INDEX 01 01:51:15
  TRACK 99 AUDIO
    TITLE "0:"
    INDEX 01 01:52:59
  TRACK 100 AUDIO
    TITLE "8:cjc057_07944"
    INDEX 01 01:53:14
  TRACK 101 AUDIO
    TITLE "0:"
    INDEX 01 01:55:38
  TRACK 102 AUDIO
    TITLE "7:cjc057_07945"
    INDEX 01 01:56:41
  TRACK 103 AUDIO
    TITLE "0:"
    INDEX 01 01:57:70
  TRACK 104 AUDIO
    TITLE "8:cjc057_07946"
    INDEX 01 01:58:23
  TRACK 105 AUDIO
    TITLE "0:"
    INDEX 01 02:01:21
  TRACK 106 AUDIO
    TITLE "7:cjc057_07947"
    INDEX 01 02:02:24
  TRACK 107 AUDIO
    TITLE "0:"
    INDEX 01 02:03:36
  TRACK 108 AUDIO
    TITLE "8:cjc057_07948"
    INDEX 01 02:03:65
  TRACK 109 AUDIO
    TITLE "0:"
    INDEX 01 02:04:74
  TRACK 110 AUDIO
    TITLE "7:cjc057_07949"
    INDEX 01 02:06:03
  TRACK 111 AUDIO
    TITLE "0:"
    INDEX 01 02:07:16
  TRACK 112 AUDIO
    TITLE "8:cjc057_07950"
    INDEX 01 02:07:43
  TRACK 113 AUDIO
    TITLE "0:"
    INDEX 01 02:10:53
